<svg width="150" height="150" viewBox="0 0 150 150" fill="none" xmlns="http://www.w3.org/2000/svg">
<path d="M53.0625 91.875L75 78.5625L96.9375 91.875L91.125 66.9375L110.625 50.0625L84.9375 48L75 24.375L65.0625 48L39.375 50.0625L58.875 66.9375L53.0625 91.875ZM0 150V15C0 10.875 1.47 7.345 4.41 4.41C7.35 1.475 10.88 0.005 15 0H135C139.125 0 142.657 1.47 145.597 4.41C148.537 7.35 150.005 10.88 150 15V105C150 109.125 148.532 112.658 145.597 115.598C142.662 118.537 139.13 120.005 135 120H30L0 150ZM23.625 105H135V15H15V113.438L23.625 105Z" fill="black"/>
</svg>
