<svg width="28" height="28" viewBox="0 0 28 28" fill="none" xmlns="http://www.w3.org/2000/svg">
<g clip-path="url(#clip0_301_16)">
<path d="M19.7528 27.444H1.90092C1.34055 27.444 0.861064 27.2289 0.514208 26.8221C0.0930362 26.3279 -0.0848935 25.5758 0.0380138 24.8108C0.170496 23.9865 0.649835 22.8127 1.56464 22.2169C3.0804 21.2299 4.6599 21.2308 5.15382 21.2599C6.05132 20.5202 7.26225 20.0154 8.89606 20.0154C11.4454 20.0154 13.7693 20.3391 15.5768 20.7033C15.654 20.069 15.8545 18.7223 16.3199 16.9702C16.9095 14.7506 17.8407 12.5058 17.9926 12.1452C18.0256 11.0472 18.1118 9.92503 18.2722 8.81643C17.7535 8.6375 17.3191 8.28793 17.0289 7.81102C16.6875 7.24937 16.5952 6.59124 16.7688 5.95741L17.5036 3.27503C17.8298 2.08355 19.0343 1.33838 20.2463 1.58005L21.6891 1.86731C24.3711 -0.00816536 27.671 0.675685 27.7193 0.686547C27.9074 0.727849 28.0289 0.910638 27.994 1.10014L23.7657 24.1015C23.4096 26.0383 21.722 27.444 19.7528 27.444ZM3.32921 26.7295H19.7526C21.377 26.7295 22.769 25.57 23.0627 23.9723L27.2258 1.32638C26.3513 1.20419 23.9962 1.04855 22.0303 2.48428C21.9984 2.51987 21.9598 2.54874 21.9169 2.56931C20.8782 3.36678 19.9604 4.62444 19.4454 6.58781C17.6692 13.3593 19.5768 21.8771 19.5963 21.9624C19.6254 22.09 19.5824 22.2233 19.4841 22.3101C19.3858 22.3964 19.248 22.4224 19.1249 22.3775C19.0799 22.3611 14.5614 20.7302 8.8962 20.7302C7.54493 20.7302 6.42019 21.111 5.53168 21.8663C5.51182 21.8883 5.48924 21.9079 5.46451 21.9245C4.90171 22.4217 4.43638 23.0734 4.07109 23.8776C3.55388 25.0162 3.38409 26.1622 3.32921 26.7295ZM4.4218 21.9888C3.78197 22.0443 2.84802 22.2341 1.95465 22.8156C1.28181 23.2538 0.861636 24.1904 0.743587 24.9242C0.653408 25.4854 0.771027 26.0217 1.05814 26.3586C1.2678 26.6047 1.55135 26.7295 1.90092 26.7295H2.61349C2.69438 25.8781 3.03366 23.6469 4.4218 21.9888ZM16.2794 20.8521C17.3851 21.0982 18.2453 21.345 18.7745 21.5098C18.5426 20.3034 18.0629 17.4452 17.9868 14.1183C17.6686 14.9828 17.2979 16.0718 17.0105 17.1536C16.5436 18.9116 16.3487 20.2718 16.2794 20.8521ZM19.7869 2.24947C19.0581 2.24947 18.3915 2.73767 18.1927 3.46382L17.458 6.1462C17.3368 6.58853 17.4014 7.048 17.6396 7.43987C17.8193 7.73528 18.0785 7.96094 18.3875 8.095C18.4877 7.52462 18.6089 6.95996 18.7541 6.40659C19.23 4.592 20.0327 3.32791 20.9677 2.45241L20.1068 2.2812C19.9997 2.25962 19.8927 2.24947 19.7869 2.24947Z" fill="black" stroke="black"/>
</g>
<defs>
<clipPath id="clip0_301_16">
<rect width="28" height="28" fill="white"/>
</clipPath>
</defs>
</svg>
